<svg data-v-423bf9ae="" xmlns="http://www.w3.org/2000/svg" viewBox="0 0 362 90" class="iconLeft"><!----><!----><!----><g data-v-423bf9ae="" id="756bcd0f-adcc-4699-8f77-b9d08bdaf10a" fill="black" transform="matrix(6.349206447601318,0,0,6.349206447601318,62.81072235107422,8.333334922790527)"><path d="M3.43 6.20L3.43 6.20L3.43 6.20Q4.06 6.80 4.06 7.87L4.06 7.87L4.06 10.49L3.61 10.49L3.61 7.87L3.61 7.87Q3.61 7.01 3.15 6.54L3.15 6.54L3.15 6.54Q2.69 6.08 1.85 6.08L1.85 6.08L1.64 6.08L0.59 6.08L0.59 10.49L0.15 10.49L0.15 1.05L1.85 1.05L1.85 1.05Q2.98 1.05 3.51 1.66L3.51 1.66L3.51 1.66Q4.03 2.27 4.03 3.56L4.03 3.56L4.03 3.56Q4.03 4.82 3.51 5.43L3.51 5.43L3.51 5.43Q3.29 5.70 2.95 5.87L2.95 5.87L2.95 5.87Q3.22 5.99 3.43 6.20ZM1.64 5.63L1.85 5.63L1.85 5.63Q2.79 5.63 3.18 5.15L3.18 5.15L3.18 5.15Q3.60 4.65 3.60 3.56L3.60 3.56L3.60 3.56Q3.60 2.45 3.19 1.97L3.19 1.97L3.19 1.97Q2.79 1.50 1.85 1.50L1.85 1.50L0.59 1.50L0.59 5.63L1.64 5.63ZM7.01 10.50L7.01 10.50L7.01 10.50Q6.68 10.50 6.32 10.40L6.32 10.40L6.32 10.40Q5.96 10.30 5.67 10.02L5.67 10.02L5.67 10.02Q5.38 9.74 5.19 9.26L5.19 9.26L5.19 9.26Q5.01 8.78 5.01 7.99L5.01 7.99L5.01 3.56L5.01 3.56Q5.01 2.35 5.50 1.71L5.50 1.71L5.50 1.71Q6.02 1.06 7.01 1.06L7.01 1.06L7.01 1.06Q8.02 1.06 8.53 1.71L8.53 1.71L8.53 1.71Q9.03 2.34 9.03 3.56L9.03 3.56L9.03 7.99L9.03 7.99Q9.03 8.78 8.85 9.26L8.85 9.26L8.85 9.26Q8.67 9.74 8.37 10.02L8.37 10.02L8.37 10.02Q8.08 10.30 7.72 10.40L7.72 10.40L7.72 10.40Q7.36 10.50 7.01 10.50ZM7.01 1.50L7.01 1.50L7.01 1.50Q6.22 1.50 5.85 1.99L5.85 1.99L5.85 1.99Q5.45 2.51 5.45 3.56L5.45 3.56L5.45 7.99L5.45 7.99Q5.45 9.06 5.85 9.58L5.85 9.58L5.85 9.58Q6.23 10.07 7.01 10.07L7.01 10.07L7.01 10.07Q7.78 10.07 8.19 9.58L8.19 9.58L8.19 9.58Q8.58 9.09 8.58 7.99L8.58 7.99L8.58 3.56L8.58 3.56Q8.58 2.48 8.19 1.99L8.19 1.99L8.19 1.99Q7.80 1.50 7.01 1.50ZM11.09 7.62L10.44 10.50L10.00 10.50L10.74 7.22L10.74 7.18L10.74 7.18L12.17 1.06L12.52 1.06L14.67 10.50L14.22 10.50L13.58 7.62L11.09 7.62ZM13.48 7.18L12.33 2.25L11.20 7.18L13.48 7.18ZM17.12 10.50L17.12 10.50L15.51 10.50L15.51 1.06L17.12 1.06L17.12 1.06Q18.24 1.06 18.79 1.74L18.79 1.74L18.79 1.74Q19.31 2.35 19.31 3.61L19.31 3.61L19.31 7.95L19.31 7.95Q19.31 9.21 18.79 9.83L18.79 9.83L18.79 9.83Q18.24 10.50 17.12 10.50ZM15.95 1.50L15.95 10.07L17.12 10.07L17.12 10.07Q18.03 10.07 18.45 9.55L18.45 9.55L18.45 9.55Q18.86 9.04 18.86 7.95L18.86 7.95L18.86 3.61L18.86 3.61Q18.86 2.52 18.45 2.01L18.45 2.01L18.45 2.01Q18.03 1.50 17.12 1.50L17.12 1.50L15.95 1.50ZM28.18 1.05L28.18 1.05L28.18 1.50L25.91 1.50L25.91 10.49L25.48 10.49L25.48 1.50L23.23 1.50L23.23 1.05L28.18 1.05ZM32.20 6.20L32.20 6.20L32.20 6.20Q32.83 6.80 32.83 7.87L32.83 7.87L32.83 10.49L32.38 10.49L32.38 7.87L32.38 7.87Q32.38 7.01 31.92 6.54L31.92 6.54L31.92 6.54Q31.46 6.08 30.62 6.08L30.62 6.08L30.41 6.08L29.36 6.08L29.36 10.49L28.92 10.49L28.92 1.05L30.62 1.05L30.62 1.05Q31.75 1.05 32.28 1.66L32.28 1.66L32.28 1.66Q32.80 2.27 32.80 3.56L32.80 3.56L32.80 3.56Q32.80 4.82 32.28 5.43L32.28 5.43L32.28 5.43Q32.06 5.70 31.72 5.87L31.72 5.87L31.72 5.87Q31.99 5.99 32.20 6.20ZM30.41 5.63L30.62 5.63L30.62 5.63Q31.56 5.63 31.95 5.15L31.95 5.15L31.95 5.15Q32.37 4.65 32.37 3.56L32.37 3.56L32.37 3.56Q32.37 2.45 31.96 1.97L31.96 1.97L31.96 1.97Q31.56 1.50 30.62 1.50L30.62 1.50L29.36 1.50L29.36 5.63L30.41 5.63ZM34.40 10.50L34.40 10.50L33.96 10.50L33.96 1.06L34.40 1.06L34.40 10.50L34.40 10.50ZM39.77 1.05L39.77 1.05L40.24 1.05L37.87 10.49L37.53 10.49L35.17 1.05L35.62 1.05L37.70 9.37L39.77 1.05ZM41.54 10.50L41.54 10.50L41.10 10.50L41.10 1.06L41.54 1.06L41.54 10.50L41.54 10.50ZM43.54 7.62L42.90 10.50L42.45 10.50L43.19 7.22L43.19 7.18L43.19 7.18L44.62 1.06L44.97 1.06L47.12 10.50L46.68 10.50L46.03 7.62L43.54 7.62ZM45.93 7.18L44.79 2.25L43.65 7.18L45.93 7.18Z"></path></g><!----><g data-v-423bf9ae="" id="5bef83ff-d37c-4235-bf6f-771752b76644" transform="matrix(1.0437679290771484,0,0,1.0437679290771484,-30.152395248413086,-6.3000569343566895)" stroke="none" fill="black"><path d="M69.169 60.566h-4.093c-.015-.007-.028-.017-.044-.024l-4.63-2.054a4.844 4.844 0 0 0 1.262-3.247v-4.354l5.499.151.09.001a3.248 3.248 0 0 0 2.867-4.776L60.642 28.47a3.242 3.242 0 0 0-3.282-1.686c-.191-.023-.379-.058-.576-.058H43.216c-.206 0-.402.035-.601.06a3.24 3.24 0 0 0-3.295 1.684l-9.477 17.792a3.25 3.25 0 0 0 2.867 4.776h.09l5.536-.153v4.355c0 1.252.486 2.383 1.262 3.247l-4.63 2.054c-.016.007-.028.017-.044.024h-4.093c-.991 0-1.795.804-1.795 1.796v.149c0 .992.804 1.796 1.795 1.796h1.664c-.004.294.013.59.074.888l4.99 24.47a4.178 4.178 0 1 0 8.186-1.67l-4.319-21.178 5.657-2.51h5.833l5.658 2.51-4.32 21.178a4.177 4.177 0 0 0 8.187 1.67l4.99-24.47c.061-.298.078-.594.074-.888h1.664c.991 0 1.795-.804 1.795-1.796v-.15c0-.991-.804-1.795-1.795-1.795zm-14.686-4.639a11.053 11.053 0 0 1-3.938.923c-.182.009-.361.027-.545.027-.184 0-.363-.018-.544-.027a11.054 11.054 0 0 1-3.94-.923 11.196 11.196 0 0 1-5.412-5.1 3.228 3.228 0 0 0 2.245-1.109c1.312 2.514 3.82 4.308 6.769 4.609V49.61c-1.82-.25-3.26-1.252-3.64-2.533l-2.333.534c0-.036.009-.07.008-.107a3.24 3.24 0 0 0-.482-1.593l3.03-.695c.672-1.22 2.338-2.087 4.299-2.087s3.627.868 4.299 2.087l3 .688a3.232 3.232 0 0 0-.49 1.6c0 .033.008.065.008.099l-2.295-.526c-.38 1.28-1.82 2.284-3.64 2.533v4.717c2.937-.3 5.439-2.08 6.755-4.58a3.23 3.23 0 0 0 2.257 1.084 11.197 11.197 0 0 1-5.41 5.096zm4.08-11.212c-.509-4.277-4.152-7.606-8.563-7.606-4.417 0-8.065 3.338-8.566 7.623a3.134 3.134 0 0 0-1.618-.388l-.86.024c.115-.924.344-1.812.671-2.652l1.246-2.34c2.015-2.88 5.352-4.773 9.127-4.773 3.697 0 6.97 1.818 8.996 4.6l1.46 2.74c.282.773.483 1.584.587 2.426l-.896-.025a3.1 3.1 0 0 0-1.583.371zM40.842 16.151a9.16 9.16 0 1 1 18.318 0 9.16 9.16 0 0 1-18.318 0z"></path></g><!----></svg>